# xmcd
#
# Track frame offsets: 
#        150
#        24343
#        43620
#        71100
#        93250
#        122603
#        141638
#        165632
#        195299
#        221382
#
# Disc length: 3210 seconds
#
# Revision: 2
# Processed by: cddbd v1.5.2PL0 Copyright (c) Steve Scherf et al.
# Submitted via: ExactAudioCopy v0.99pb4
#
DISCID=870c880a
DTITLE=The Great Jazz Trio - Stella by Starlight
DYEAR=2006
DGENRE=Jazz
TTITLE0=Sweet Georgia Brown
TTITLE1=Stella by Starlight
TTITLE2=Old Folks
TTITLE3=Song for My Father
TTITLE4=In a Mellow Tone
TTITLE5=I`m Old Fashioned
TTITLE6=I`ll Remember April
TTITLE7=Deep in a Dream
TTITLE8=Scrapple from the Apple
TTITLE9=Travelin' Light
EXTD=YEAR: 2006
EXTT0=
EXTT1=
EXTT2=
EXTT3=
EXTT4=
EXTT5=
EXTT6=
EXTT7=
EXTT8=
EXTT9=
PLAYORDER=
